<svg width="144" height="17" xmlns="http://www.w3.org/2000/svg" version="1.1" enable-background="new 0 0 284 23.333" xml:space="preserve">
 <g>
  <title>Layer 1</title>
  <path fill="#ffffff" d="m65.056,3.61c0,-0.137 0.116,-0.252 0.252,-0.252l4.163,0c2.401,0 4.376,1.956 4.376,4.338c0,2.419 -1.975,4.396 -4.356,4.396l-3.525,0l0,4.568c0,0.137 -0.116,0.252 -0.309,0.252l-0.349,0c-0.136,0 -0.252,-0.115 -0.252,-0.252l0,-13.05zm4.377,7.591c1.896,0 3.504,-1.569 3.504,-3.525c0,-1.897 -1.608,-3.409 -3.524,-3.409l-3.447,0l0,6.934l3.467,0z" id="svg_1"/>
  <path fill="#ffffff" d="m74.099,16.68l5.963,-13.477c0.039,-0.078 0.136,-0.137 0.233,-0.137l0.057,0c0.098,0 0.194,0.021 0.252,0.137l5.907,13.476c0.039,0.117 0.039,0.232 -0.174,0.232l-0.504,0c-0.136,0 -0.232,-0.096 -0.272,-0.174l-1.568,-3.563l-7.396,0l-1.549,3.563c-0.039,0.078 -0.136,0.174 -0.272,0.174l-0.542,0c-0.135,0.001 -0.194,-0.075 -0.135,-0.231m9.565,-4.26l-3.312,-7.803l-0.038,0l-3.37,7.803l6.72,0z" id="svg_2"/>
  <path fill="#ffffff" d="m88.679,3.61c0,-0.136 0.098,-0.252 0.252,-0.252l4.803,0c2.361,0 4.317,1.781 4.317,4.145c0,1.956 -1.355,3.523 -3.194,4.046l2.826,5.014c0.098,0.156 0.059,0.35 -0.134,0.35l-0.601,0c-0.136,0 -0.213,-0.059 -0.271,-0.174l-2.808,-5.072c-0.252,0.018 -0.465,0.018 -0.717,0.018l-3.562,0l0,4.977c0,0.137 -0.117,0.252 -0.31,0.252l-0.349,0c-0.135,0 -0.252,-0.115 -0.252,-0.252l0,-13.052zm5.015,7.261c1.859,0 3.428,-1.452 3.428,-3.369c0,-1.84 -1.569,-3.254 -3.448,-3.254l-4.066,0l0,6.623l4.086,0z" id="svg_3"/>
  <path fill="#ffffff" d="m101.265,3.649c0,-0.175 0.116,-0.291 0.291,-0.291l0.348,0c0.174,0 0.291,0.116 0.291,0.291l0,5.983l6.584,-6.138c0.154,-0.136 0.213,-0.136 0.386,-0.136l0.543,0c0.213,0 0.233,0.213 0.116,0.329l-6.739,6.254l6.951,6.643c0.118,0.096 0.079,0.328 -0.173,0.328l-0.619,0c-0.175,0 -0.272,-0.039 -0.427,-0.193l-6.622,-6.428l0,6.369c0,0.195 -0.136,0.252 -0.291,0.252l-0.387,0c-0.154,0 -0.252,-0.096 -0.252,-0.252l0,-13.011z" id="svg_4"/>
  <path fill="#ffffff" d="m112.612,3.61c0,-0.136 0.115,-0.252 0.251,-0.252l0.427,0c0.134,0 0.251,0.116 0.251,0.252l0,13.05c0,0.156 -0.136,0.252 -0.271,0.252l-0.407,0c-0.136,0 -0.251,-0.115 -0.251,-0.252l0,-13.05z" id="svg_5"/>
  <path fill="#ffffff" d="m117.645,3.416c0,-0.155 0.136,-0.252 0.291,-0.252l0.329,0l9.294,12.103l0.02,0l0,-11.657c0,-0.136 0.116,-0.252 0.252,-0.252l0.386,0c0.136,0 0.252,0.116 0.252,0.252l0,13.243c0,0.176 -0.154,0.252 -0.309,0.252l-0.252,0c-0.019,0 -0.175,-0.057 -9.372,-12.217l-0.02,0l0,11.772c0,0.137 -0.115,0.252 -0.251,0.252l-0.368,0c-0.136,0 -0.252,-0.115 -0.252,-0.252l0,-13.244z" id="svg_6"/>
  <path fill="#ffffff" d="m138.616,3.164c1.956,0 3.428,0.658 4.686,1.801c0.098,0.096 0.117,0.252 0.02,0.348c-0.098,0.117 -0.213,0.233 -0.31,0.33c-0.116,0.136 -0.213,0.116 -0.33,0c-1.084,-1.007 -2.498,-1.627 -4.086,-1.627c-3.369,0 -6.021,2.75 -6.021,6.099c0,3.352 2.652,6.1 6.021,6.1c2.364,0 3.834,-0.91 4.028,-1.064l0,-3.641l-3.311,0c-0.213,0 -0.252,-0.076 -0.252,-0.252l0,-0.387c0,-0.154 0.039,-0.232 0.252,-0.232l3.969,0c0.137,0 0.252,0.117 0.252,0.232l0,4.492c0,0.291 -0.115,0.387 -0.271,0.504c-0.348,0.232 -2.11,1.238 -4.647,1.238c-3.893,0 -7.01,-3.059 -7.01,-6.951c0,-3.872 3.117,-6.99 7.01,-6.99" id="svg_7"/>
  <path fill="#ffffff" d="m16.953,3.624c0,-0.23 0.208,-0.438 0.438,-0.438l2.193,0c0.254,0 0.438,0.208 0.438,0.438l0,7.006c0,1.963 1.339,3.508 3.347,3.508c2.008,0 3.37,-1.545 3.37,-3.484l0,-7.03c0,-0.23 0.184,-0.438 0.438,-0.438l2.193,0c0.23,0 0.438,0.208 0.438,0.438l0,7.167c0,3.51 -2.792,6.348 -6.439,6.348c-3.624,0 -6.416,-2.838 -6.416,-6.348l0,-7.167z" id="svg_8"/>
  <path stroke="null" fill="#ffffff" d="m43.594,3.624c0,-0.23 0.208,-0.438 0.438,-0.438l2.193,0c0.254,0 0.438,0.208 0.438,0.438l0,7.006c0,1.963 1.339,3.508 3.347,3.508c2.008,0 3.37,-1.545 3.37,-3.484l0,-7.03c0,-0.23 0.184,-0.438 0.438,-0.438l2.193,0c0.23,0 0.438,0.208 0.438,0.438l0,7.167c0,3.51 -2.792,6.348 -6.439,6.348c-3.624,0 -6.416,-2.838 -6.416,-6.348l0,-7.167z" id="svg_9"/>
  <path fill="#ffffff" d="m40.594,2.955l-5.076,0l-0.231,0l-0.012,0c-1.294,0 -2.343,1.049 -2.343,2.345c0,0.001 0,0.001 0,0.002c0,0.003 0,0.006 0,0.01l0,11.159c0,0.242 0.195,0.438 0.437,0.438l2.149,0c0.241,0 0.437,-0.195 0.437,-0.438l0,-10.746l4.639,0c0.235,0 0.425,-0.19 0.425,-0.425l0,-1.92c-0.001,-0.233 -0.19,-0.425 -0.425,-0.425" id="svg_10"/>
  <path fill="#ffffff" d="m6.071,0.004l-1.704,0l0,-0.004l-3.853,0l0,0.012c-0.29,0.039 -0.514,0.284 -0.514,0.584l0,1.584c0,0.3 0.224,0.546 0.514,0.585l0,0.009l0.078,0l3.775,0l1.704,0c0.765,0 1.384,-0.62 1.384,-1.386c0,-0.764 -0.619,-1.384 -1.384,-1.384" id="svg_11"/>
  <path fill="#ffffff" d="m13.562,2.953l-6.106,0l0,2.771l6.107,0c0.329,0 0.597,-0.267 0.597,-0.597l0,-1.577c0,-0.33 -0.268,-0.597 -0.598,-0.597" id="svg_12"/>
  <path fill="#ffffff" d="m7.582,2.953c-0.834,0 -1.511,0.676 -1.511,1.511l0,11.839c0,0.334 0.271,0.605 0.605,0.605l1.811,0c0.335,0 0.605,-0.271 0.605,-0.605l0,-11.839c0,-0.835 -0.676,-1.511 -1.51,-1.511" id="svg_13"/>
  <path fill="#ffffff" d="m9.092,4.463c0,0.834 -0.676,1.512 -1.511,1.512c-0.834,0 -1.51,-0.678 -1.51,-1.512s0.676,-1.511 1.51,-1.511c0.835,0 1.511,0.677 1.511,1.511" id="svg_14"/>
  <path d="m-101,-139c-1,-1 -1.2565,-1.203 -2,0c-1.66251,2.68999 -5.89856,11.55556 -11,23c-7.33981,16.46594 -14,40 -20,64c-6,24 -10,45 -12,59l3,8l0,1l0,0" id="svg_15" stroke="#000" fill="none"/>
 </g>

</svg>